<?xml version="1.0" encoding="utf-8"?>
<!-- Generator: Adobe Illustrator 19.0.0, SVG Export Plug-In . SVG Version: 6.00 Build 0)  -->
<svg version="1.1" id="Layer_1" xmlns="http://www.w3.org/2000/svg" xmlns:xlink="http://www.w3.org/1999/xlink" x="0px" y="0px"
	 viewBox="-77 78 25 25" style="enable-background:new -77 78 25 25;" xml:space="preserve">
<style type="text/css">
	.st0{fill:#E80059;}
</style>
<title>noun_99709_cc</title>
<desc>Created using Figma</desc>
<g id="Canvas" transform="translate(-4909 -2597)">
	<g id="noun_99709_cc">
		<g id="Vector">
			<g transform="translate(4909 2597)">
				<path id="path0_fill" class="st0" d="M4844.5,2675c6.9,0,12.5,5.6,12.5,12.5s-5.6,12.5-12.5,12.5c-6.9,0-12.5-5.6-12.5-12.5
					S4837.6,2675,4844.5,2675z M4852,2691.6l0-8l-4.8,3.3L4852,2691.6z M4846.4,2687.3l-1.7,1.1c-0.1,0-0.2,0.1-0.2,0.1
					c-0.1,0-0.2,0-0.2-0.1l-1.7-1.2l-4.9,4.9h13.9L4846.4,2687.3z M4841.8,2686.8l-4.8-3.2v8L4841.8,2686.8z M4844.5,2687.6l6.9-4.7
					h-13.9L4844.5,2687.6z"/>
			</g>
		</g>
	</g>
</g>
</svg>
